<svg xmlns="http://www.w3.org/2000/svg" xmlns:xlink="http://www.w3.org/1999/xlink" id="Ebene_1" width="24" height="15" x="0" y="0" enable-background="new 0 0 24 15" version="1.1" viewBox="0 0 24 15" xml:space="preserve"><rect width="24" height="5" fill="#DE191A"/><rect width="24" height="5" y="10" fill="#25377A"/><rect width="24" height="5" y="5" fill="#FFF"/><g><rect width="5.766" height="6.097" x="9.104" y="5.124" fill="#FFF"/><rect width="1.22" height="1.22" x="11.39" y="5.124" fill="#DE191A"/><rect width="1.22" height="1.219" x="10.17" y="6.343" fill="#DE191A"/><rect width="1.219" height="1.219" x="12.61" y="6.343" fill="#DE191A"/><rect width="1.22" height="1.219" x="13.829" y="7.563" fill="#DE191A"/><rect width="1.22" height="1.219" x="11.39" y="7.563" fill="#DE191A"/><rect width="1.219" height="1.219" x="8.951" y="7.563" fill="#DE191A"/><rect width="1.22" height="1.221" x="10.17" y="8.781" fill="#DE191A"/><rect width="1.219" height="1.221" x="12.61" y="8.781" fill="#DE191A"/><rect width="1.22" height="1.219" x="11.39" y="10.002" fill="#DE191A"/><rect width=".973" height=".953" x="13.832" y="10.004" fill="#DE191A"/><rect width="1.011" height=".955" x="9.159" y="10.002" fill="#DE191A"/><path fill="#25377A" d="M9.332,10.006c0.381,0.609,1.144,1.221,2.668,1.221s2.287-0.611,2.668-1.221s0.381-1.219,0.381-1.219v1.219 v1.221H12H8.951v-0.611v-0.609"/><rect width=".609" height="1.221" x="14.5" y="8.779" fill="#FFF"/><polygon fill="#0A7CA6" stroke="#FFF" stroke-miterlimit="10" stroke-width=".046" points="9.039 5.122 8.389 3.402 9.13 2.635 10.156 2.928 10.453 4.743"/><polygon fill="#0A7CA6" stroke="#FFF" stroke-miterlimit="10" stroke-width=".046" points="11.268 4.608 11.085 2.779 12 2.229 12.915 2.779 12.731 4.608"/><polygon fill="#0A7CA6" stroke="#FFF" stroke-miterlimit="10" stroke-width=".046" points="13.596 4.743 13.892 2.928 14.917 2.635 15.659 3.402 15.009 5.122"/><polygon fill="#25377A" stroke="#FFF" stroke-miterlimit="10" stroke-width=".046" points="12.56 4.69 12.537 2.852 13.496 2.384 14.359 3.011 14.018 4.818"/><polygon fill="#25377A" stroke="#FFF" stroke-miterlimit="10" stroke-width=".046" points="10.07 4.708 9.729 2.902 10.592 2.275 11.551 2.743 11.528 4.581"/><path fill="#DE191A" d="M8.951,5.124c0,0,0-0.612,3.049-0.612s3.049,0.612,3.049,0.612H8.951z"/><rect width="1.22" height="1.22" x="13.829" y="5.124" fill="#DE191A"/><rect width="1.219" height="1.22" x="8.951" y="5.124" fill="#DE191A"/><rect width="1" height="1.221" x="8.146" y="10.006" fill="#25377A"/><rect width="1" height="1.221" x="14.854" y="10.006" fill="#25377A"/><rect width="7.5" height=".75" x="8.25" y="11.153" fill="#25377A"/></g></svg>