<svg xmlns="http://www.w3.org/2000/svg" xmlns:xlink="http://www.w3.org/1999/xlink" id="Ebene_1" width="24" height="15" x="0" y="0" enable-background="new 0 0 24 15" version="1.1" viewBox="0 0 24 15" xml:space="preserve"><rect width="24" height="15" x="0" fill="#FFF"/><g><path fill="#20396E" d="M15.464,9.5c-1.104,1.913-3.551,2.568-5.464,1.464S7.432,7.413,8.536,5.5"/><path fill="#C61532" d="M8.536,5.5C9.641,3.587,12.087,2.932,14,4.036s2.568,3.551,1.464,5.464"/><circle cx="13.732" cy="8.5" r="2" fill="#20396E"/><circle cx="10.268" cy="6.5" r="2" fill="#C61532"/></g><g><rect width="3.999" height=".667" x="2.927" y="2.757" fill="#010202" transform="matrix(0.53 -0.848 0.848 0.53 -0.3048 5.6307)"/><rect width="4" height=".667" x="3.775" y="3.287" fill="#010202" transform="matrix(0.5299 -0.8481 0.8481 0.5299 -0.3551 6.5997)"/><rect width="3.999" height=".666" x="4.623" y="3.817" fill="#010202" transform="matrix(0.53 -0.848 0.848 0.53 -0.4067 7.567)"/></g><g><rect width="3.999" height=".667" x="4.623" y="10.537" fill="#010202" transform="matrix(0.53 0.848 -0.848 0.53 12.3312 -0.5066)"/><rect width="3.999" height=".666" x="2.927" y="11.597" fill="#010202" transform="matrix(0.53 0.848 -0.848 0.53 12.4326 1.4295)"/><g><rect width="1.834" height=".667" x="4.283" y="10.148" fill="#010202" transform="matrix(0.53 0.848 -0.848 0.53 11.3336 0.5167)"/><rect width="1.834" height=".667" x="5.431" y="11.985" fill="#010202" transform="matrix(0.5298 0.8481 -0.8481 0.5298 13.4335 0.4084)"/></g></g><g><g><rect width="1.834" height=".667" x="15.881" y="2.898" fill="#010202" transform="matrix(0.5299 0.8481 -0.8481 0.5299 10.6375 -12.7266)"/><rect width="1.834" height=".667" x="17.028" y="4.735" fill="#010202" transform="matrix(0.5299 0.8481 -0.8481 0.5299 12.7346 -12.8363)"/></g><rect width="4" height=".667" x="16.219" y="3.286" fill="#010202" transform="matrix(0.5298 0.8481 -0.8481 0.5298 11.6361 -13.7498)"/><g><rect width="1.834" height=".668" x="17.577" y="1.838" fill="#010202" transform="matrix(0.5299 0.8481 -0.8481 0.5299 10.536 -14.663)"/><rect width="1.834" height=".667" x="18.725" y="3.675" fill="#010202" transform="matrix(0.5299 0.8481 -0.8481 0.5299 12.6335 -14.773)"/></g></g><g><g><rect width="1.833" height=".667" x="17.577" y="12.515" fill="#010202" transform="matrix(0.53 -0.848 0.848 0.53 -2.2034 21.7219)"/><rect width="1.835" height=".667" x="18.724" y="10.678" fill="#010202" transform="matrix(0.5295 -0.8483 0.8483 0.5295 -0.1002 21.8427)"/></g><g><rect width="1.833" height=".668" x="15.882" y="11.456" fill="#010202" transform="matrix(0.53 -0.848 0.848 0.53 -2.1027 19.7863)"/><rect width="1.833" height=".668" x="17.029" y="9.618" fill="#010202" transform="matrix(0.53 -0.848 0.848 0.53 -0.0049 19.8955)"/></g><g><rect width="1.833" height=".668" x="16.729" y="11.985" fill="#010202" transform="matrix(0.53 -0.848 0.848 0.53 -2.1531 20.7539)"/><rect width="1.835" height=".67" x="17.876" y="10.147" fill="#010202" transform="matrix(0.5295 -0.8483 0.8483 0.5295 -0.0492 20.8742)"/></g></g></svg>