<svg xmlns="http://www.w3.org/2000/svg" xmlns:xlink="http://www.w3.org/1999/xlink" id="Ebene_1" width="24" height="15" x="0" y="0" enable-background="new 0 0 24 15" version="1.1" viewBox="0 0 24 15" xml:space="preserve"><rect width="24" height="5" x="0" fill="#E23D27"/><rect width="24" height="5" y="10" fill="#293377"/><rect width="24" height="3" y="6" fill="#007D5A"/><polygon fill="#FFF" points="24 6 12.5 6 2 0 4 0 12.75 5 24 5"/><polygon fill="#FFF" points="24 9 12.5 9 2 15 4 15 12.75 10 24 10"/><polygon fill="#FAB51B" points="0 2.25 9.5 7.5 0 12.75 0 11.5 7.5 7.5 0 3.5"/><polygon fill="#007D5A" points="0 2.25 0 0 2 0 15.1 7.5 9.5 7.5"/><polygon fill="#007D5A" points="0 12.75 0 15 2 15 15.1 7.5 9.5 7.5"/><polygon fill="#010202" points="0 3.5 7.5 7.5 0 11.5"/></svg>